<svg x="0" y="0" version="1.1" xmlns="http://www.w3.org/2000/svg" xmlns:xlink="http://www.w3.org/1999/xlink" viewBox="0 0 50 50" width="50" height="50" style="fill: rgb(255, 255, 255);"><g fill="none" stroke="none" stroke-width="1" stroke-linecap="butt" stroke-linejoin="miter" stroke-miterlimit="10" stroke-dasharray="" stroke-dashoffset="0" font-family="none" font-weight="normal" font-size="12" text-anchor="start" mix-blend-mode="normal"><g><g><path d="M0,50l0,-50l50,0l0,50z" fill="#981937" font-family="sans-serif"/><g fill="#ffffff" font-family="Bitstream Vera Sans"><path d="M21,3c-9.377,0 -17,7.623 -17,17c0,9.377 7.623,17 17,17c3.7095,0 7.14033,-1.19615 9.9375,-3.21875l13.15625,13.125l2.8125,-2.8125l-13,-13.03125c2.55431,-2.97494 4.09375,-6.84119 4.09375,-11.0625c0,-9.377 -7.623,-17 -17,-17z M21,5c8.29612,0 15,6.70388 15,15c0,8.29612 -6.70388,15 -15,15c-8.29612,0 -15,-6.70388 -15,-15c0,-8.29612 6.70388,-15 15,-15z"/></g></g></g></g></svg>